# xmcd
#
# Track frame offsets: 
#        150
#        14375
#        27517
#        44045
#        56687
#        73985
#        86392
#        100442
#        120740
#        135785
#
# Disc length: 2037 seconds
#
# Revision: 7
# Processed by: cddbd v1.5.2PL0 Copyright (c) Steve Scherf et al.
# Submitted via: ExactAudioCopy v1.3
#
DISCID=8a07f30a
DTITLE=Wade Hayes - On a Good Night
DYEAR=1996
DGENRE=Country
TTITLE0=On a Good Night
TTITLE1=Undo the Right
TTITLE2=The Room
TTITLE3=It's Over My Head
TTITLE4=I Still Do
TTITLE5=My Side of Town
TTITLE6=Where Do I Go to Start All Over
TTITLE7=Our Time is Coming
TTITLE8=Hurts Don't It
TTITLE9=This Is the Life for Me
EXTD=
EXTT0=
EXTT1=
EXTT2=
EXTT3=
EXTT4=
EXTT5=
EXTT6=
EXTT7=
EXTT8=
EXTT9=
PLAYORDER=
